<?xml version="1.0" encoding="UTF-8"?>
<svg width="34px" height="35px" viewBox="0 0 34 35" version="1.1" xmlns="http://www.w3.org/2000/svg" xmlns:xlink="http://www.w3.org/1999/xlink">
    <!-- Generator: Sketch 57 (83077) - https://sketch.com -->
    <title>logo</title>
    <desc>Created with Sketch.</desc>
    <defs>
        <polygon id="path-1" points="0.39204 0.386206897 24.78044 0.386206897 24.78044 6.63821264 0.39204 6.63821264"></polygon>
        <polygon id="path-3" points="0.392 0.228264368 24.7804 0.228264368 24.7804 6.43678161 0.392 6.43678161"></polygon>
    </defs>
    <g id="页面-1" stroke="none" stroke-width="1" fill="none" fill-rule="evenodd">
        <g id="1-01-工作台首页" transform="translate(-30.000000, -13.000000)">
            <g id="分组-11">
                <g id="分组-4" transform="translate(30.000000, 13.000000)">
                    <g id="logo">
                        <path d="M24.0008,19.6356437 C22.9648,19.6356437 22.1876,18.8535747 22.1876,17.8554713 C22.1876,16.8569655 22.9648,16.0318506 24.0008,16.0318506 C24.9928,16.0318506 25.7704,16.8569655 25.7704,17.8554713 C25.7704,18.8535747 24.95,19.6356437 24.0008,19.6356437" id="Fill-1" fill="#D92031"></path>
                        <g id="分组" transform="translate(4.400000, 0.016092)">
                            <mask id="mask-2" fill="white">
                                <use xlink:href="#path-1"></use>
                            </mask>
                            <g id="Clip-4"></g>
                            <path d="M12.56484,4.16327011 C15.88924,4.16327011 18.99524,5.07568391 21.62964,6.63821264 L24.78044,4.16327011 C21.28364,1.77602874 17.09604,0.386086207 12.56484,0.386086207 C8.07564,0.386086207 3.84524,1.77602874 0.39204,4.16327011 L3.50004,6.63821264 C6.17644,5.07568391 9.28444,4.16327011 12.56484,4.16327011" id="Fill-3" fill="#FEFEFE" mask="url(#mask-2)"></path>
                        </g>
                        <g id="分组" transform="translate(4.400000, 28.177011)">
                            <mask id="mask-4" fill="white">
                                <use xlink:href="#path-3"></use>
                            </mask>
                            <g id="Clip-6"></g>
                            <path d="M3.5,0.228264368 L0.392,2.65935632 C3.8452,5.047 8.0756,6.43694253 12.5648,6.43694253 C17.096,6.43694253 21.2836,5.047 24.7804,2.65935632 L21.6296,0.228264368 C18.9952,1.7911954 15.8892,2.65935632 12.5648,2.65935632 C9.2844,2.65935632 6.1764,1.7911954 3.5,0.228264368" id="Fill-5" fill="#FEFEFE" mask="url(#mask-4)"></path>
                        </g>
                        <path d="M3.71328,17.5078448 C3.71328,14.208592 4.61968,11.0827299 6.17408,8.39054598 L3.71328,5.26508621 C1.38208,8.73772989 8e-05,12.9502011 8e-05,17.5078448 C8e-05,22.0658908 1.38208,26.2779598 3.71328,29.794454 L6.17408,26.6251437 C4.61968,23.9337644 3.71328,20.850546 3.71328,17.5078448" id="Fill-7" fill="#FEFEFE"></path>
                        <path d="M27.7992,26.6251839 L30.2164,29.7944943 C32.5908,26.278 33.972,22.065931 33.972,17.5078851 C33.972,12.9502414 32.5908,8.73777011 30.2164,5.26512644 L27.7992,8.39058621 C29.354,11.0827701 30.2164,14.2086322 30.2164,17.5078851 C30.2164,20.8505862 29.354,23.9338046 27.7992,26.6251839" id="Fill-9" fill="#FEFEFE"></path>
                        <path d="M11.4828,25.7133333 C9.7556,25.7133333 8.2452,25.2358046 6.9064,24.2368966 L6.864,24.2368966 L6.864,24.1504023 L6.864,21.1975287 L6.864,20.8941954 L7.0796,21.1110345 C7.4248,21.5889655 8.892,23.065 11.2672,23.065 C13.0796,23.065 13.2524,21.7185057 13.2524,21.1110345 C13.2524,19.9391379 12.0436,19.2874138 10.7056,18.6368966 L10.6196,18.5934483 C8.8492,17.7252874 6.864,16.7706322 6.864,14.2083908 C6.864,11.8637931 8.8064,10.1278736 11.4828,9.99793103 L11.828,9.99793103 C14.1592,9.99793103 15.3248,10.8652874 15.5408,11.0394828 L15.5836,11.082931 L15.5836,11.1694253 L15.5836,13.6870115 L15.5836,13.9481034 L15.368,13.773908 C14.5468,13.0364943 13.2092,12.6020115 11.9576,12.6020115 C11.396,12.6020115 10.8788,12.6901149 10.5328,12.8631034 C9.9728,13.1229885 9.7132,13.5574713 9.7132,14.2083908 C9.7132,14.9900575 10.6624,15.4675862 11.828,16.0758621 L12.0436,16.1631609 C13.5548,16.987069 16.1444,18.2897126 16.1444,21.2417816 C16.1444,22.500977 15.6272,23.8032184 14.8064,24.5414368 C13.9868,25.2792529 12.778,25.7133333 11.4828,25.7133333" id="Fill-11" fill="#FEFEFE"></path>
                        <path d="M20.67656,25.8001494 L20.54696,25.8001494 L17.91496,25.8001494 L17.78496,25.8001494 L17.78496,25.6702069 L17.78496,11.0828506 L17.78496,10.995954 L17.87176,10.9525057 C17.95776,10.9082529 20.37496,9.9531954 22.92176,9.9531954 C25.68376,9.9531954 27.06576,10.995954 27.06576,10.995954 L27.10856,11.0398046 L27.10856,11.1267011 L27.10856,13.6873333 L27.10856,13.904977 L26.93576,13.7738276 C26.67656,13.6008391 25.46816,12.7322759 23.22336,12.6900345 L23.09376,12.6900345 C21.92816,12.6900345 21.10856,12.9503218 20.72016,13.0798621 L20.67656,13.122908 L20.67656,13.1663563 L20.67656,25.6702069 L20.67656,25.8001494 Z" id="Fill-13" fill="#FEFEFE"></path>
                    </g>
                </g>
            </g>
        </g>
    </g>
</svg>